HIERARCHY
ROOT Root
{
	OFFSET 0.00000 0.00000 0.00000
	CHANNELS 6 Xposition Yposition Zposition Zrotation Xrotation Yrotation
	JOINT Hips
	{
		OFFSET 0 0 0	
		CHANNELS 3 Zrotation Xrotation Yrotation
		JOINT Spine
		{
			OFFSET 0 4 0	
			CHANNELS 3 Zrotation Xrotation Yrotation
			JOINT Spine1
			{
				OFFSET 0 19.4 0	
				CHANNELS 3 Zrotation Xrotation Yrotation
				JOINT Spine2
				{
					OFFSET 0 16.6 0	
					CHANNELS 3 Zrotation Xrotation Yrotation
					JOINT LeftCollar
					{
						OFFSET 0 10 0	
						CHANNELS 3 Zrotation Xrotation Yrotation
						JOINT LeftArm
						{
							OFFSET 15.6 -2 3	
							CHANNELS 3 Zrotation Xrotation Yrotation
							JOINT LeftForeArm
							{
								OFFSET 3.5 -27 -1	
								CHANNELS 3 Zrotation Xrotation Yrotation
								JOINT LeftHand
								{
									OFFSET 1 -27 1	
									CHANNELS 3 Zrotation Xrotation Yrotation
									End Site
									{
										OFFSET 0 -15 0
									}
								}
							}
						}
					}
					JOINT RightCollar
					{
						OFFSET 0 10 0	
						CHANNELS 3 Zrotation Xrotation Yrotation
						JOINT RightArm
						{
							OFFSET -15.6 -2 3	
							CHANNELS 3 Zrotation Xrotation Yrotation
							JOINT RightForeArm
							{
								OFFSET -3.5 -27 -1	
								CHANNELS 3 Zrotation Xrotation Yrotation
								JOINT RightHand
								{
									OFFSET -1 -27 1	
									CHANNELS 3 Zrotation Xrotation Yrotation
									End Site
									{
										OFFSET 0 -15 0
									}
								}
							}
						}
					}
					JOINT Neck
					{
						OFFSET 0 10 0	
						CHANNELS 3 Zrotation Xrotation Yrotation
						JOINT Head
						{
							OFFSET 0 12.7 3	
							CHANNELS 3 Zrotation Xrotation Yrotation
							End Site
							{
								OFFSET 0 12.7 3
							}
						}
					}
				}
			}
		}
	}
	JOINT LeftHip
	{
		OFFSET 0 0 0	
		CHANNELS 3 Zrotation Xrotation Yrotation
		JOINT LeftUpLeg
		{
			OFFSET 8.8 -6 0	
			CHANNELS 3 Zrotation Xrotation Yrotation
			JOINT LeftLeg
			{
				OFFSET 0 -39 2	
				CHANNELS 3 Zrotation Xrotation Yrotation
				JOINT LeftFoot
				{
					OFFSET 0 -43 -2	
					CHANNELS 3 Zrotation Xrotation Yrotation
					JOINT LeftFootFront
					{
						OFFSET 0 -7 8.5	
						CHANNELS 3 Zrotation Xrotation Yrotation
						End Site
						{
							OFFSET 0 -0.5 9
						}
					}
				}
				JOINT LeftHeel
				{
					OFFSET 0 -43 -2	
					CHANNELS 3 Zrotation Xrotation Yrotation
					End Site
					{
						OFFSET 0 -7.5 -5
					}
				}
			}
		}
	}
	JOINT RightHip
	{
		OFFSET 0 0 0	
		CHANNELS 3 Zrotation Xrotation Yrotation
		JOINT RightUpLeg
		{
			OFFSET -8.8 -6 0	
			CHANNELS 3 Zrotation Xrotation Yrotation
			JOINT RightLeg
			{
				OFFSET 0 -39 2	
				CHANNELS 3 Zrotation Xrotation Yrotation
				JOINT RightFoot
				{
					OFFSET 0 -43 -2	
					CHANNELS 3 Zrotation Xrotation Yrotation
					JOINT RightFootFront
					{
						OFFSET 0 -7 8.5	
						CHANNELS 3 Zrotation Xrotation Yrotation
						End Site
						{
							OFFSET 0 -0.5 9
						}
					}
				}
				JOINT RightHeel
				{
					OFFSET 0 -43 -2	
					CHANNELS 3 Zrotation Xrotation Yrotation
					End Site
					{
						OFFSET 0 -7.5 -5
					}
				}
			}
		}
	}
}
MOTION
Frames: 21
Frame Time: 0.008
0 96.351 0 -0 0 -0 2.2959 -0.75232 5.6836 -1.5456 0.24091 -3.0081 -1.5456 0.24091 -3.0081 -1.2992 0.19692 -2.5272 -0 0 -0 5.6812 0.73475 -1.3845 -2.2532 0.098669 4.6852 -0 0 -0 -0 0 -0 2.4706 0.32503 -0.4831 -0.073064 -0.73794 3.1401 -0 0 -0 1.6376 0.92646 2.6044 1.6376 0.92646 2.6044 2.2959 -0.75232 5.6836 2.0856 -2.695 0.80885 -3.4547 7.9548 -3.1017 -0 0 -0 -0 0 -0 -0 0 -0 2.2959 -0.75232 5.6836 -3.8336 -4.5713 -8.6337 -2.352 9.9511 -0.8387 -0 0 -0 -0 0 -0 -0 0 -0 
0 96.351 0 -0 0 -0 2.2995 -0.76614 5.6719 -1.5475 0.24461 -3.0015 -1.5475 0.24461 -3.0015 -1.3008 0.20003 -2.5217 -0 0 -0 5.6803 0.73907 -1.3799 -2.2504 0.10281 4.6747 -0 0 -0 -0 0 -0 2.4745 0.33367 -0.49864 -0.071516 -0.74311 3.1539 -0 0 -0 1.6357 0.9278 2.6006 1.6357 0.9278 2.6006 2.2995 -0.76614 5.6719 2.0844 -2.6793 0.8214 -3.4575 7.9563 -3.102 -0 0 -0 -0 0 -0 -0 0 -0 2.2995 -0.76614 5.6719 -3.835 -4.5596 -8.6264 -2.3562 9.9524 -0.83742 -0 0 -0 -0 0 -0 -0 0 -0 
0 96.351 0 -0 0 -0 2.304 -0.78327 5.6573 -1.5499 0.24921 -2.9934 -1.5499 0.24921 -2.9933 -1.3028 0.2039 -2.5149 -0 0 -0 5.6789 0.7445 -1.3742 -2.247 0.10807 4.6617 -0 0 -0 -0 0 -0 2.4793 0.34441 -0.51755 -0.069728 -0.74921 3.1709 -0 0 -0 1.6331 0.92943 2.5961 1.6331 0.92943 2.5961 2.304 -0.78327 5.6573 2.0828 -2.6598 0.83722 -3.4609 7.958 -3.1025 -0 0 -0 -0 0 -0 -0 0 -0 2.304 -0.78327 5.6573 -3.8369 -4.5452 -8.617 -2.3614 9.9541 -0.83608 -0 0 -0 -0 0 -0 -0 0 -0 
0 96.351 0 -0 0 -0 2.3097 -0.80398 5.6397 -1.5528 0.25477 -2.9835 -1.5528 0.25477 -2.9835 -1.3053 0.20858 -2.5066 -0 0 -0 5.6772 0.75112 -1.3673 -2.2427 0.11455 4.646 -0 0 -0 -0 0 -0 2.485 0.35738 -0.53981 -0.0677 -0.75612 3.1912 -0 0 -0 1.63 0.93131 2.5907 1.63 0.93131 2.5907 2.3097 -0.80398 5.6397 2.0807 -2.6362 0.85659 -3.4651 7.96 -3.1033 -0 0 -0 -0 0 -0 -0 0 -0 2.3097 -0.80398 5.6397 -3.8393 -4.5279 -8.6053 -2.3676 9.9563 -0.83479 -0 0 -0 -0 0 -0 -0 0 -0 
0 96.351 0 -0 0 -0 2.3166 -0.82813 5.6191 -1.5561 0.26132 -2.9722 -1.5561 0.26132 -2.9722 -1.3081 0.21409 -2.4971 -0 0 -0 5.6749 0.75881 -1.3592 -2.2376 0.12214 4.628 -0 0 -0 -0 0 -0 2.4914 0.37236 -0.56481 -0.065558 -0.76355 3.2145 -0 0 -0 1.6261 0.93328 2.5847 1.6261 0.93328 2.5847 2.3166 -0.82813 5.6191 2.0781 -2.6089 0.87937 -3.4698 7.9622 -3.1043 -0 0 -0 -0 0 -0 -0 0 -0 2.3166 -0.82813 5.6191 -3.8424 -4.508 -8.5912 -2.3748 9.959 -0.83377 -0 0 -0 -0 0 -0 -0 0 -0 
0 96.351 0 -0 0 -0 2.3246 -0.85516 5.5961 -1.5598 0.26879 -2.9596 -1.5598 0.26879 -2.9596 -1.3112 0.22038 -2.4866 -0 0 -0 5.6719 0.76727 -1.3503 -2.2317 0.13053 4.6081 -0 0 -0 -0 0 -0 2.4984 0.38877 -0.59143 -0.063453 -0.77105 3.2397 -0 0 -0 1.6216 0.93503 2.5784 1.6216 0.93503 2.5783 2.3246 -0.85516 5.5961 2.0749 -2.5785 0.90484 -3.475 7.9647 -3.1054 -0 0 -0 -0 0 -0 -0 0 -0 2.3246 -0.85516 5.5961 -3.8461 -4.4858 -8.5752 -2.383 9.9622 -0.83329 -0 0 -0 -0 0 -0 -0 0 -0 
0 96.351 0 -0 0 -0 2.3335 -0.88433 5.5716 -1.5635 0.27708 -2.9464 -1.5635 0.27708 -2.9464 -1.3144 0.22735 -2.4755 -0 0 -0 5.6683 0.77609 -1.3408 -2.2251 0.13921 4.5873 -0 0 -0 -0 0 -0 2.5054 0.40583 -0.61845 -0.061519 -0.77822 3.2656 -0 0 -0 1.6165 0.93621 2.5722 1.6165 0.93621 2.5722 2.3335 -0.88433 5.5716 2.071 -2.5461 0.93199 -3.4803 7.9675 -3.1063 -0 0 -0 -0 0 -0 -0 0 -0 2.3335 -0.88433 5.5716 -3.8503 -4.4619 -8.5576 -2.3919 9.9656 -0.83357 -0 0 -0 -0 0 -0 -0 0 -0 
0 96.351 0 -0 0 -0 2.3433 -0.91565 5.5459 -1.5673 0.28628 -2.9326 -1.5673 0.28628 -2.9326 -1.3176 0.23509 -2.464 -0 0 -0 5.6638 0.78518 -1.331 -2.2179 0.14778 4.5658 -0 0 -0 -0 0 -0 2.5124 0.42331 -0.64557 -0.059731 -0.78485 3.2919 -0 0 -0 1.6107 0.93652 2.5665 1.6107 0.93652 2.5665 2.3433 -0.91565 5.5459 2.0665 -2.5119 0.96028 -3.4858 7.9707 -3.1066 -0 0 -0 -0 0 -0 -0 0 -0 2.3433 -0.91565 5.5459 -3.8549 -4.4363 -8.5387 -2.4018 9.9693 -0.83476 -0 0 -0 -0 0 -0 -0 0 -0 
0 96.351 0 -0 0 -0 2.3533 -0.94751 5.5203 -1.5708 0.29602 -2.9192 -1.5708 0.29602 -2.9192 -1.3205 0.24329 -2.4527 -0 0 -0 5.6586 0.79396 -1.3215 -2.2105 0.15536 4.5451 -0 0 -0 -0 0 -0 2.5186 0.43996 -0.67101 -0.058226 -0.79033 3.3167 -0 0 -0 1.6045 0.93556 2.5617 1.6045 0.93556 2.5617 2.3533 -0.94751 5.5203 2.0616 -2.4777 0.98776 -3.4912 7.9744 -3.1059 -0 0 -0 -0 0 -0 -0 0 -0 2.3533 -0.94751 5.5203 -3.8597 -4.4101 -8.5199 -2.4122 9.9729 -0.83705 -0 0 -0 -0 0 -0 -0 0 -0 
0 96.351 0 -0 0 -0 2.3635 -0.97993 5.4952 -1.5739 0.30628 -2.9061 -1.5739 0.30628 -2.9061 -1.3231 0.25192 -2.4417 -0 0 -0 5.6526 0.80257 -1.3124 -2.2027 0.16159 4.5256 -0 0 -0 -0 0 -0 2.524 0.45577 -0.69493 -0.056926 -0.79453 3.34 -0 0 -0 1.5981 0.93327 2.5581 1.5981 0.93327 2.5581 2.3635 -0.97993 5.4952 2.0564 -2.4438 1.0141 -3.4964 7.9787 -3.1043 -0 0 -0 -0 0 -0 -0 0 -0 2.3635 -0.97993 5.4952 -3.8645 -4.3832 -8.5014 -2.4234 9.9762 -0.84043 -0 0 -0 -0 0 -0 -0 0 -0 
0 96.351 0 -0 0 -0 2.3737 -1.0129 5.4707 -1.5765 0.31705 -2.8934 -1.5765 0.31705 -2.8934 -1.3254 0.26098 -2.4311 -0 0 -0 5.6456 0.81102 -1.304 -2.1946 0.16618 4.5074 -0 0 -0 -0 0 -0 2.5284 0.47066 -0.71755 -0.055781 -0.79732 3.3619 -0 0 -0 1.5915 0.92963 2.5557 1.5915 0.92963 2.5557 2.3737 -1.0129 5.4707 2.051 -2.4102 1.0392 -3.5016 7.9836 -3.1017 -0 0 -0 -0 0 -0 -0 0 -0 2.3737 -1.0129 5.4707 -3.8694 -4.3556 -8.4837 -2.4353 9.9793 -0.8449 -0 0 -0 -0 0 -0 -0 0 -0 
0 96.351 0 -0 0 -0 2.3839 -1.0463 5.4471 -1.5787 0.32828 -2.8813 -1.5787 0.32828 -2.8813 -1.3272 0.27043 -2.4209 -0 0 -0 5.6378 0.81947 -1.2962 -2.1863 0.16883 4.4908 -0 0 -0 -0 0 -0 2.5317 0.48465 -0.73897 -0.054837 -0.79865 3.3824 -0 0 -0 1.5849 0.92471 2.5543 1.5849 0.92471 2.5543 2.3839 -1.0463 5.4471 2.0454 -2.3767 1.0629 -3.5066 7.9891 -3.0987 -0 0 -0 -0 0 -0 -0 0 -0 2.3839 -1.0463 5.4471 -3.8744 -4.3274 -8.4672 -2.448 9.9822 -0.85039 -0 0 -0 -0 0 -0 -0 0 -0 
0 96.351 0 -0 0 -0 2.394 -1.0802 5.4245 -1.5804 0.33989 -2.8696 -1.5804 0.33989 -2.8696 -1.3287 0.2802 -2.4111 -0 0 -0 5.6291 0.82797 -1.2891 -2.1776 0.16939 4.476 -0 0 -0 -0 0 -0 2.5337 0.4978 -0.75939 -0.054169 -0.79858 3.4015 -0 0 -0 1.5786 0.9187 2.554 1.5786 0.9187 2.554 2.394 -1.0802 5.4245 2.0398 -2.3435 1.0858 -3.5115 7.9952 -3.0959 -0 0 -0 -0 0 -0 -0 0 -0 2.394 -1.0802 5.4245 -3.8795 -4.2985 -8.4524 -2.4614 9.9849 -0.8568 -0 0 -0 -0 0 -0 -0 0 -0 
0 96.351 0 -0 0 -0 2.4041 -1.1145 5.4034 -1.5817 0.35182 -2.8586 -1.5817 0.35182 -2.8586 -1.3298 0.29023 -2.4019 -0 0 -0 5.6197 0.83654 -1.2825 -2.1687 0.16777 4.463 -0 0 -0 -0 0 -0 2.5346 0.51035 -0.77892 -0.053905 -0.79763 3.4192 -0 0 -0 1.5727 0.91182 2.5545 1.5727 0.91182 2.5545 2.4041 -1.1145 5.4034 2.034 -2.3106 1.108 -3.5163 8.0019 -3.0942 -0 0 -0 -0 0 -0 -0 0 -0 2.4041 -1.1145 5.4034 -3.8848 -4.269 -8.4396 -2.4754 9.9874 -0.86407 -0 0 -0 -0 0 -0 -0 0 -0 
0 96.351 0 -0 0 -0 2.4142 -1.1491 5.3839 -1.5827 0.36395 -2.8482 -1.5827 0.36395 -2.8482 -1.3307 0.30044 -2.3932 -0 0 -0 5.6099 0.84519 -1.2762 -2.1597 0.16396 4.4519 -0 0 -0 -0 0 -0 2.5344 0.5225 -0.79758 -0.05412 -0.79626 3.4352 -0 0 -0 1.5674 0.90434 2.5557 1.5674 0.90434 2.5557 2.4142 -1.1491 5.3839 2.0281 -2.2778 1.1303 -3.5208 8.0092 -3.0944 -0 0 -0 -0 0 -0 -0 0 -0 2.4142 -1.1491 5.3839 -3.8905 -4.239 -8.4288 -2.4898 9.9898 -0.87215 -0 0 -0 -0 0 -0 -0 0 -0 
0 96.351 0 -0 0 -0 2.4244 -1.1838 5.3662 -1.5834 0.37612 -2.8384 -1.5834 0.37612 -2.8384 -1.3313 0.31068 -2.385 -0 0 -0 5.5998 0.85403 -1.2703 -2.1505 0.15794 4.4425 -0 0 -0 -0 0 -0 2.533 0.53464 -0.81545 -0.05476 -0.795 3.4493 -0 0 -0 1.563 0.89656 2.5573 1.563 0.89656 2.5573 2.4244 -1.1838 5.3662 2.0221 -2.2453 1.153 -3.5252 8.0168 -3.0971 -0 0 -0 -0 0 -0 -0 0 -0 2.4244 -1.1838 5.3662 -3.8965 -4.2088 -8.4199 -2.5047 9.9919 -0.88107 -0 0 -0 -0 0 -0 -0 0 -0 
0 96.351 0 -0 0 -0 2.4347 -1.2184 5.3503 -1.5839 0.38811 -2.8293 -1.5839 0.38811 -2.8293 -1.3318 0.32077 -2.3773 -0 0 -0 5.5898 0.86322 -1.2645 -2.1413 0.1499 4.4346 -0 0 -0 -0 0 -0 2.5306 0.54726 -0.83254 -0.055687 -0.79422 3.4609 -0 0 -0 1.5595 0.88885 2.5592 1.5595 0.88885 2.5592 2.4347 -1.2184 5.3503 2.016 -2.2133 1.1762 -3.5295 8.0247 -3.1025 -0 0 -0 -0 0 -0 -0 0 -0 2.4347 -1.2184 5.3503 -3.9028 -4.1784 -8.4127 -2.5199 9.9937 -0.89087 -0 0 -0 -0 0 -0 -0 0 -0 
0 96.351 0 -0 0 -0 2.4452 -1.2524 5.3364 -1.5843 0.39961 -2.8208 -1.5844 0.39961 -2.8208 -1.3322 0.33044 -2.3702 -0 0 -0 5.5799 0.87308 -1.2589 -2.1324 0.14001 4.4278 -0 0 -0 -0 0 -0 2.5273 0.56083 -0.84882 -0.056669 -0.79404 3.4699 -0 0 -0 1.557 0.88162 2.5611 1.557 0.88162 2.5611 2.4452 -1.2524 5.3364 2.0098 -2.1819 1.1999 -3.5336 8.0329 -3.1104 -0 0 -0 -0 0 -0 -0 0 -0 2.4452 -1.2524 5.3364 -3.9094 -4.1481 -8.4069 -2.5354 9.9951 -0.90166 -0 0 -0 -0 0 -0 -0 0 -0 
0 96.351 0 -0 0 -0 2.4559 -1.2855 5.3244 -1.5847 0.41032 -2.813 -1.5847 0.41032 -2.813 -1.3325 0.33945 -2.3637 -0 0 -0 5.5703 0.88392 -1.2533 -2.1239 0.12858 4.422 -0 0 -0 -0 0 -0 2.523 0.57565 -0.86422 -0.057461 -0.79428 3.4757 -0 0 -0 1.5556 0.87528 2.563 1.5556 0.87528 2.563 2.4559 -1.2855 5.3244 2.0035 -2.1514 1.2236 -3.5375 8.0411 -3.1201 -0 0 -0 -0 0 -0 -0 0 -0 2.4559 -1.2855 5.3244 -3.9162 -4.1183 -8.4021 -2.5511 9.9961 -0.91348 -0 0 -0 -0 0 -0 -0 0 -0 
0 96.351 0 -0 0 -0 2.4667 -1.3173 5.3142 -1.585 0.41998 -2.806 -1.585 0.41998 -2.806 -1.3328 0.34758 -2.3578 -0 0 -0 5.5611 0.89604 -1.2478 -2.1158 0.11597 4.417 -0 0 -0 -0 0 -0 2.518 0.59181 -0.87872 -0.057866 -0.79465 3.4781 -0 0 -0 1.5551 0.87022 2.5646 1.5551 0.87022 2.5646 2.4667 -1.3173 5.3142 1.9969 -2.1222 1.2469 -3.5413 8.0495 -3.1311 -0 0 -0 -0 0 -0 -0 0 -0 2.4667 -1.3173 5.3142 -3.9232 -4.0892 -8.3982 -2.5671 9.9965 -0.92633 -0 0 -0 -0 0 -0 -0 0 -0 
0 96.351 0 -0 0 -0 2.4776 -1.3476 5.306 -1.5851 0.42833 -2.7997 -1.5851 0.42833 -2.7997 -1.333 0.35461 -2.3526 -0 0 -0 5.5523 0.90972 -1.2425 -2.1083 0.10254 4.4125 -0 0 -0 -0 0 -0 2.5121 0.60931 -0.89238 -0.057784 -0.79483 3.4774 -0 0 -0 1.5555 0.86682 2.566 1.5555 0.86681 2.566 2.4776 -1.3476 5.306 1.99 -2.0944 1.2692 -3.5448 8.0579 -3.1427 -0 0 -0 -0 0 -0 -0 0 -0 2.4776 -1.3476 5.306 -3.9302 -4.0611 -8.3949 -2.5831 9.9965 -0.94012 -0 0 -0 -0 0 -0 -0 0 -0 
